HIERARCHY
ROOT rear_leg_kick
{
	OFFSET 0.000000 0.000000 0.000000 
	CHANNELS 6 Xposition Yposition Zposition Xrotation Yrotation Zrotation
	JOINT Spine_01
	{
		OFFSET -2.065253 138.184219 -44.815624 
		CHANNELS 3 Xrotation Yrotation Zrotation
		JOINT Spine_02
		{
			OFFSET 0.520074 -4.180557 28.052856 
			CHANNELS 3 Xrotation Yrotation Zrotation
			JOINT Spine_03
			{
				OFFSET 0.791370 -2.919846 35.451523 
				CHANNELS 3 Xrotation Yrotation Zrotation
				JOINT Spine_04
				{
					OFFSET 0.747592 1.223022 39.269825 
					CHANNELS 3 Xrotation Yrotation Zrotation
					JOINT Neck_Base
					{
						OFFSET 0.000081 3.589020 29.437294 
						CHANNELS 3 Xrotation Yrotation Zrotation
						JOINT Neck_01
						{
							OFFSET 0.086413 17.644897 9.948303 
							CHANNELS 3 Xrotation Yrotation Zrotation
							JOINT Neck_02
							{
								OFFSET 0.177275 14.629242 15.949623 
								CHANNELS 3 Xrotation Yrotation Zrotation
								JOINT Head
								{
									OFFSET 0.182508 14.778946 16.250008 
									CHANNELS 3 Xrotation Yrotation Zrotation
									JOINT L_Ear
									{
										OFFSET 7.919987 16.572235 9.240326 
										CHANNELS 3 Xrotation Yrotation Zrotation
										End Site
										{
											OFFSET 6.815228 9.182251 -12.414536 
										}
									}
									JOINT R_Ear
									{
										OFFSET -7.928057 16.483398 9.391205 
										CHANNELS 3 Xrotation Yrotation Zrotation
										End Site
										{
											OFFSET 5.622296 -6.948959 14.317245 
										}
									}
									JOINT Jaw
									{
										OFFSET 0.105044 -4.313522 8.478790 
										CHANNELS 3 Xrotation Yrotation Zrotation
										End Site
										{
											OFFSET -0.111798 16.777130 -1.843124 
										}
									}
								}
							}
						}
					}
					JOINT R_Scapula
					{
						OFFSET -6.755534 17.542099 7.673988 
						CHANNELS 3 Xrotation Yrotation Zrotation
						JOINT R_Shoulder
						{
							OFFSET -4.014001 -35.522369 22.005142 
							CHANNELS 3 Xrotation Yrotation Zrotation
							JOINT R_Front_UpperLeg
							{
								OFFSET -3.180526 -27.349648 -18.723938 
								CHANNELS 3 Xrotation Yrotation Zrotation
								JOINT R_Front_LowerLeg
								{
									OFFSET 1.574751 -39.718536 2.863815 
									CHANNELS 3 Xrotation Yrotation Zrotation
									JOINT R_Front_Ankle
									{
										OFFSET 1.210720 -30.536894 2.201736 
										CHANNELS 3 Xrotation Yrotation Zrotation
										JOINT R_Front_Hoof
										{
											OFFSET -0.000329 -9.177136 4.105560 
											CHANNELS 3 Xrotation Yrotation Zrotation
											End Site
											{
												OFFSET -0.001001 0.000034 -10.053635 
											}
										}
									}
								}
							}
						}
					}
					JOINT L_Scapula
					{
						OFFSET 6.757073 17.541290 7.674065 
						CHANNELS 3 Xrotation Yrotation Zrotation
						JOINT L_Shoulder
						{
							OFFSET 2.968476 -35.658661 21.949913 
							CHANNELS 3 Xrotation Yrotation Zrotation
							JOINT L_Front_UpperLeg
							{
								OFFSET 1.998491 -26.938370 -19.468536 
								CHANNELS 3 Xrotation Yrotation Zrotation
								JOINT L_Front_LowerLeg
								{
									OFFSET -0.861290 -39.609924 -4.305416 
									CHANNELS 3 Xrotation Yrotation Zrotation
									JOINT L_Front_Ankle
									{
										OFFSET -0.662126 -30.452995 -3.314075 
										CHANNELS 3 Xrotation Yrotation Zrotation
										JOINT L_Front_Hoof
										{
											OFFSET 0.004961 -9.221653 4.004395 
											CHANNELS 3 Xrotation Yrotation Zrotation
											End Site
											{
												OFFSET 0.010740 -0.110461 10.052948 
											}
										}
									}
								}
							}
						}
					}
				}
			}
		}
		JOINT L_Hip
		{
			OFFSET 14.887411 -7.729401 -12.131317 
			CHANNELS 3 Xrotation Yrotation Zrotation
			JOINT L_Back_UpperLeg
			{
				OFFSET -0.000001 -34.478539 8.440952 
				CHANNELS 3 Xrotation Yrotation Zrotation
				JOINT L_Back_LowerLeg
				{
					OFFSET -1.688307 -42.425472 -14.651997 
					CHANNELS 3 Xrotation Yrotation Zrotation
					JOINT L_Back_Ankle
					{
						OFFSET 2.213187 -33.695141 13.007118 
						CHANNELS 3 Xrotation Yrotation Zrotation
						JOINT L_Back_Hoof
						{
							OFFSET 0.582796 -11.035059 3.767292 
							CHANNELS 3 Xrotation Yrotation Zrotation
							End Site
							{
								OFFSET 1.784864 0.000005 11.537720 
							}
						}
					}
				}
			}
		}
		JOINT R_Hip
		{
			OFFSET -14.887405 -7.729279 -12.131313 
			CHANNELS 3 Xrotation Yrotation Zrotation
			JOINT R_Back_UpperLeg
			{
				OFFSET 0.000004 -35.225853 4.378212 
				CHANNELS 3 Xrotation Yrotation Zrotation
				JOINT R_Back_LowerLeg
				{
					OFFSET 5.257670 -39.319450 -21.066193 
					CHANNELS 3 Xrotation Yrotation Zrotation
					JOINT R_Back_Ankle
					{
						OFFSET -0.134198 -36.054085 3.087997 
						CHANNELS 3 Xrotation Yrotation Zrotation
						JOINT R_Back_Hoof
						{
							OFFSET -0.767576 -11.035024 3.734016 
							CHANNELS 3 Xrotation Yrotation Zrotation
							End Site
							{
								OFFSET 2.350782 -0.000005 -11.435806 
							}
						}
					}
				}
			}
		}
		JOINT Tail_01
		{
			OFFSET 0.000002 9.427795 -23.815609 
			CHANNELS 3 Xrotation Yrotation Zrotation
			JOINT Tail_02
			{
				OFFSET 0.000390 -20.694008 -20.715851 
				CHANNELS 3 Xrotation Yrotation Zrotation
				JOINT Tail_03
				{
					OFFSET 0.413998 -30.804550 -2.971649 
					CHANNELS 3 Xrotation Yrotation Zrotation
					JOINT Tail_04
					{
						OFFSET 0.610636 -30.669823 2.589767 
						CHANNELS 3 Xrotation Yrotation Zrotation
						JOINT Tail_05
						{
							OFFSET 0.504950 -30.962078 0.649574 
							CHANNELS 3 Xrotation Yrotation Zrotation
							End Site
							{
								OFFSET -3.067470 1.161484 -30.798828 
							}
						}
					}
				}
			}
		}
	}
}
MOTION
Frames: 5
Frame Time: 0.033333
0.000000 0.000000 0.000000 0.000006 -0.000000 -0.000000 -0.000034 -0.000000 -0.000000 -0.000007 0.000001 -0.000006 0.000015 0.000002 0.000098 -0.000006 -0.000001 -0.000082 -0.000001 -0.000001 -0.000009 -0.000025 0.000000 0.000000 -0.000018 0.000000 0.000000 -0.000069 -0.000283 -0.000154 0.000089 0.000304 0.000141 0.000073 0.000265 0.000162 0.000136 0.000272 0.000726 0.000011 -0.000002 -0.000010 -0.000012 0.000003 -0.000003 0.000006 -0.000001 -0.000004 -0.000020 -0.000000 0.000002 -0.000062 -0.000002 -0.000000 0.000058 -0.000001 -0.000000 0.000015 0.000000 -0.000007 -0.000027 -0.000003 0.000004 0.000007 0.000003 0.000005 0.000006 0.000058 0.000005 -0.000001 -0.000001 -0.000001 0.000007 0.000100 -0.000043 0.000002 -0.000002 -0.000007 0.000006 -0.000001 -0.000001 -0.000013 0.000004 0.000007 0.000005 -0.000004 0.000000 0.000019 0.000055 -0.000022 0.000012 -0.000000 -0.000002 0.000018 -0.000005 0.000002 0.000016 0.000002 0.000011 -0.000032 0.000002 0.000001 0.000006 -0.000059 0.000015 -0.000025 0.000001 -0.000007 -0.000008 -0.000001 0.000001 -0.000002 0.000001 -0.000001 0.000022 0.000002 -0.000001 -0.000006 0.000003 0.000001 
0.000000 0.000000 0.000000 0.000006 -0.000000 -0.000000 -1.173166 0.078925 0.429163 0.086226 -0.094004 -0.183269 0.369666 -0.032445 -0.250059 0.290744 0.045298 -0.008571 -0.411287 -0.083844 0.027690 0.753508 0.006605 0.004269 0.895203 0.020016 -0.006976 0.535140 0.050965 -0.032186 0.000091 0.000298 0.000547 0.368893 0.185491 -0.054824 0.000136 0.000272 0.000726 -0.019311 0.001848 -0.002782 0.059588 -0.006824 -0.000150 -0.667550 -0.221566 0.064871 2.958591 0.109944 -0.078466 2.066558 0.107965 0.014723 0.000061 -0.000001 -0.000000 -0.007051 -0.000731 -0.000010 0.018643 0.001473 -0.000123 0.636198 0.115056 0.034353 0.000006 0.000057 0.000013 3.396872 -0.116485 -0.015999 0.000006 0.000100 -0.000043 -0.435190 -0.000002 -0.000008 4.231066 0.008936 -0.910142 -4.028080 -0.060704 0.579064 1.405699 -0.091790 -0.099051 0.000017 0.000054 -0.000022 0.562253 -0.000000 -0.000002 3.860985 0.191291 0.027659 -5.893417 -0.022564 -1.305637 2.647591 -0.194309 0.837305 0.000008 -0.000058 0.000015 0.675764 -0.251152 -0.273172 0.680745 -0.358237 -0.059848 -0.108373 -0.371633 0.037998 -0.109555 -0.372852 0.016991 0.677056 -0.360912 -0.081090 
0.000000 0.000000 0.000000 0.000006 -0.000000 -0.000000 -4.045229 0.194090 1.464123 0.215356 -0.252676 -0.623283 1.218084 -0.097808 -0.860041 1.023093 0.133779 -0.028285 -1.311731 -0.284997 0.089037 2.773829 0.062066 0.038212 3.211347 0.105890 0.012058 1.415692 0.179572 -0.077505 0.000088 0.000299 0.000646 1.361968 0.681980 -0.209664 0.000134 0.000273 0.000726 -0.074535 0.011870 -0.011067 0.231979 -0.026575 -0.000534 0.951581 -0.597921 0.145494 2.715386 0.101065 -0.071803 11.337186 0.481328 -0.143973 0.000061 -0.000001 -0.000000 -0.028250 -0.002911 -0.000017 0.074277 0.005873 -0.000502 2.195258 0.362381 0.115980 0.000006 0.000056 0.000021 11.976264 -0.370307 0.003509 0.000007 0.000100 -0.000043 -1.472925 -0.000002 -0.000008 13.728181 -0.207048 -2.973726 -11.876005 -0.295018 1.688697 3.667178 -0.330285 -0.178051 0.000019 0.000056 -0.000022 1.902977 -0.000000 -0.000002 12.015638 0.513486 -0.260693 -17.097471 0.303816 -3.764934 7.280753 -0.673451 2.495467 0.000006 -0.000059 0.000015 2.288541 -0.261393 -0.329845 2.293037 -0.378275 -0.122538 -0.422680 -0.422703 0.060131 -0.423546 -0.423986 0.042807 2.281776 -0.386080 -0.242358 
0.000000 0.000000 0.000000 0.000006 -0.000000 -0.000000 -7.494071 0.194517 2.711785 0.112306 -0.309667 -1.151219 2.104252 -0.150790 -1.609323 1.975871 0.206762 -0.051298 -2.429622 -0.517511 0.151327 5.428476 0.188932 0.115730 6.140307 0.236655 0.076795 1.852213 0.331471 -0.078294 0.000093 0.000299 0.000652 2.809754 1.399495 -0.450502 0.000135 0.000272 0.000726 -0.162494 0.027896 -0.024321 0.507233 -0.058113 -0.001026 4.124918 -0.967127 0.249821 -0.000122 0.000085 -0.000002 24.176292 0.853141 -0.532226 0.000067 -0.000001 -0.000000 -0.063506 -0.006538 -0.000017 0.166428 0.013158 -0.001142 4.237938 0.625265 0.216632 0.000005 0.000055 0.000030 23.236956 -0.625333 0.128708 0.000009 0.000100 -0.000043 -2.711517 -0.000001 -0.000013 24.155163 -0.809268 -5.249278 -18.876114 -0.630434 2.643974 4.920347 -0.626563 -0.062179 0.000018 0.000055 -0.000023 3.503182 -0.000000 -0.000007 20.645454 0.639056 -0.985763 -27.457888 1.027328 -5.947274 11.003683 -1.324056 4.133525 0.000006 -0.000061 0.000015 4.214182 -0.134409 -0.261002 4.215332 -0.210045 -0.179613 -0.891964 -0.291343 0.075047 -0.891597 -0.292065 0.076318 4.196002 -0.226914 -0.427964 
0.000000 0.000000 0.000000 0.000006 -0.000000 -0.000000 -10.389408 0.079671 3.758474 -0.469807 -0.217872 -1.594235 2.598237 -0.166576 -2.256302 2.890142 0.247820 -0.071575 -3.513798 -0.665144 0.183130 7.882340 0.434854 0.295229 8.536580 0.370421 0.259180 1.612314 0.429529 -0.003970 0.000080 0.000304 0.000637 4.543143 2.247906 -0.761863 0.000131 0.000273 0.000726 -0.279475 0.049369 -0.042097 0.874902 -0.100243 -0.001447 -0.021478 -1.591675 0.410184 14.595450 0.498599 -0.438818 26.028028 0.838504 -0.615441 0.000072 -0.000001 -0.000000 -0.112738 -0.011374 0.004809 0.294509 0.023284 -0.002050 -1.710578 0.994579 0.317413 19.049629 -0.390099 0.351835 23.659939 -0.647624 0.079646 0.000010 0.000100 -0.000043 -3.749227 -0.000003 -0.000003 32.330513 -1.542746 -6.999121 -23.311577 -0.902487 3.225715 5.095658 -0.867062 0.154555 0.000021 0.000056 -0.000023 4.843918 -0.000001 0.000003 27.386086 0.524997 -1.777130 -34.594917 1.750830 -7.362085 13.137491 -1.958008 5.342238 0.000012 -0.000061 0.000015 5.827654 0.019452 -0.155329 5.825474 -0.002523 -0.221600 -1.465084 -0.115670 0.091451 -1.463259 -0.115738 0.116408 5.800458 -0.029805 -0.581301 
